{
	"asset":{
		"generator":"Khronos glTF Blender I/O v3.6.28",
		"version":"2.0"
	},
	"scene":0,
	"scenes":[
		{
			"name":"Scene",
			"nodes":[
				0,
				1,
				2
			]
		}
	],
	"nodes":[
		{
			"mesh":0,
			"name":"Breach3.0",
			"scale":[
				0.2877868413925171,
				0.2877867519855499,
				0.2877868413925171
			],
			"translation":[
				-0.0022846758365631104,
				0,
				2.5996174812316895
			]
		},
		{
			"mesh":1,
			"name":"BlockBarrel_Low",
			"rotation":[
				0.7071068286895752,
				0,
				0,
				0.7071068286895752
			],
			"scale":[
				0.18985815346240997,
				1,
				0.18985815346240997
			],
			"translation":[
				-0.0022846758365631104,
				0,
				1.4010156393051147
			]
		},
		{
			"mesh":2,
			"name":"Barrel2.0_Low",
			"rotation":[
				0.7071068286895752,
				0,
				0,
				0.7071068286895752
			],
			"scale":[
				0.14750000834465027,
				1,
				0.14750000834465027
			],
			"translation":[
				-0.0022846758365631104,
				0,
				1.4324849843978882
			]
		}
	],
	"meshes":[
		{
			"name":"Cube.006",
			"primitives":[
				{
					"attributes":{
						"POSITION":0,
						"NORMAL":1,
						"TEXCOORD_0":2
					},
					"indices":3
				},
				{
					"attributes":{
						"POSITION":4,
						"NORMAL":5,
						"TEXCOORD_0":6
					},
					"indices":7
				},
				{
					"attributes":{
						"POSITION":8,
						"NORMAL":9,
						"TEXCOORD_0":10
					},
					"indices":11
				}
			]
		},
		{
			"name":"Cylinder",
			"primitives":[
				{
					"attributes":{
						"POSITION":12,
						"NORMAL":13,
						"TEXCOORD_0":14
					},
					"indices":15
				}
			]
		},
		{
			"name":"Cylinder.007",
			"primitives":[
				{
					"attributes":{
						"POSITION":16,
						"NORMAL":17,
						"TEXCOORD_0":18
					},
					"indices":19
				}
			]
		}
	],
	"accessors":[
		{
			"bufferView":0,
			"componentType":5126,
			"count":2992,
			"max":[
				1.0346450805664062,
				0.9999980330467224,
				1.3046095371246338
			],
			"min":[
				-1.0314536094665527,
				-1.1962324380874634,
				-1.383089542388916
			],
			"type":"VEC3"
		},
		{
			"bufferView":1,
			"componentType":5126,
			"count":2992,
			"type":"VEC3"
		},
		{
			"bufferView":2,
			"componentType":5126,
			"count":2992,
			"type":"VEC2"
		},
		{
			"bufferView":3,
			"componentType":5123,
			"count":5877,
			"type":"SCALAR"
		},
		{
			"bufferView":4,
			"componentType":5126,
			"count":92,
			"max":[
				1.0346450805664062,
				0.9629189968109131,
				-0.4225713610649109
			],
			"min":[
				-1.0314534902572632,
				-0.6285707950592041,
				-1.2545080184936523
			],
			"type":"VEC3"
		},
		{
			"bufferView":5,
			"componentType":5126,
			"count":92,
			"type":"VEC3"
		},
		{
			"bufferView":6,
			"componentType":5126,
			"count":92,
			"type":"VEC2"
		},
		{
			"bufferView":7,
			"componentType":5123,
			"count":156,
			"type":"SCALAR"
		},
		{
			"bufferView":8,
			"componentType":5126,
			"count":58,
			"max":[
				-0.6651822328567505,
				0.7531673312187195,
				-0.4225713610649109
			],
			"min":[
				-1.0314534902572632,
				-0.6285707950592041,
				-1.2545080184936523
			],
			"type":"VEC3"
		},
		{
			"bufferView":9,
			"componentType":5126,
			"count":58,
			"type":"VEC3"
		},
		{
			"bufferView":10,
			"componentType":5126,
			"count":58,
			"type":"VEC2"
		},
		{
			"bufferView":11,
			"componentType":5123,
			"count":96,
			"type":"SCALAR"
		},
		{
			"bufferView":12,
			"componentType":5126,
			"count":1605,
			"max":[
				0.9366231560707092,
				0.9996803402900696,
				0.9366217255592346
			],
			"min":[
				-0.9366231560707092,
				0.11423522233963013,
				-0.9366227388381958
			],
			"type":"VEC3"
		},
		{
			"bufferView":13,
			"componentType":5126,
			"count":1605,
			"type":"VEC3"
		},
		{
			"bufferView":14,
			"componentType":5126,
			"count":1605,
			"type":"VEC2"
		},
		{
			"bufferView":15,
			"componentType":5123,
			"count":3408,
			"type":"SCALAR"
		},
		{
			"bufferView":16,
			"componentType":5126,
			"count":610,
			"max":[
				1.152502179145813,
				1.0551036596298218,
				1.152502179145813
			],
			"min":[
				-1.152502179145813,
				-5.28787899017334,
				-1.152502179145813
			],
			"type":"VEC3"
		},
		{
			"bufferView":17,
			"componentType":5126,
			"count":610,
			"type":"VEC3"
		},
		{
			"bufferView":18,
			"componentType":5126,
			"count":610,
			"type":"VEC2"
		},
		{
			"bufferView":19,
			"componentType":5123,
			"count":1080,
			"type":"SCALAR"
		}
	],
	"bufferViews":[
		{
			"buffer":0,
			"byteLength":35904,
			"byteOffset":0,
			"target":34962
		},
		{
			"buffer":0,
			"byteLength":35904,
			"byteOffset":35904,
			"target":34962
		},
		{
			"buffer":0,
			"byteLength":23936,
			"byteOffset":71808,
			"target":34962
		},
		{
			"buffer":0,
			"byteLength":11754,
			"byteOffset":95744,
			"target":34963
		},
		{
			"buffer":0,
			"byteLength":1104,
			"byteOffset":107500,
			"target":34962
		},
		{
			"buffer":0,
			"byteLength":1104,
			"byteOffset":108604,
			"target":34962
		},
		{
			"buffer":0,
			"byteLength":736,
			"byteOffset":109708,
			"target":34962
		},
		{
			"buffer":0,
			"byteLength":312,
			"byteOffset":110444,
			"target":34963
		},
		{
			"buffer":0,
			"byteLength":696,
			"byteOffset":110756,
			"target":34962
		},
		{
			"buffer":0,
			"byteLength":696,
			"byteOffset":111452,
			"target":34962
		},
		{
			"buffer":0,
			"byteLength":464,
			"byteOffset":112148,
			"target":34962
		},
		{
			"buffer":0,
			"byteLength":192,
			"byteOffset":112612,
			"target":34963
		},
		{
			"buffer":0,
			"byteLength":19260,
			"byteOffset":112804,
			"target":34962
		},
		{
			"buffer":0,
			"byteLength":19260,
			"byteOffset":132064,
			"target":34962
		},
		{
			"buffer":0,
			"byteLength":12840,
			"byteOffset":151324,
			"target":34962
		},
		{
			"buffer":0,
			"byteLength":6816,
			"byteOffset":164164,
			"target":34963
		},
		{
			"buffer":0,
			"byteLength":7320,
			"byteOffset":170980,
			"target":34962
		},
		{
			"buffer":0,
			"byteLength":7320,
			"byteOffset":178300,
			"target":34962
		},
		{
			"buffer":0,
			"byteLength":4880,
			"byteOffset":185620,
			"target":34962
		},
		{
			"buffer":0,
			"byteLength":2160,
			"byteOffset":190500,
			"target":34963
		}
	],
	"buffers":[
		{
			"byteLength":192660,
			"uri":"data:application/octet-stream;base64,"
		}
	]
}
